<svg width="44" height="42" viewBox="0 0 44 42" fill="none" xmlns="http://www.w3.org/2000/svg">
<path d="M18.8335 0.166504L13.8335 7.24984C15.5002 6.83317 17.1668 6.4165 18.8335 6.4165C20.5002 6.4165 22.1668 6.83317 23.8335 7.24984M37.5835 6.4165C35.271 6.4165 33.4168 8.27067 33.4168 10.5832V24.6665C32.0835 25.854 31.3335 27.5623 31.3335 29.3332C31.3335 32.7915 34.1252 35.5832 37.5835 35.5832C41.0418 35.5832 43.8335 32.7915 43.8335 29.3332C43.8335 27.5623 43.0835 25.854 41.7502 24.6873V10.5832C41.7502 8.27067 39.896 6.4165 37.5835 6.4165ZM37.5835 8.49984C38.7293 8.49984 39.6668 9.43734 39.6668 10.5832V12.6665H35.5002V10.5832C35.5002 9.43734 36.4377 8.49984 37.5835 8.49984ZM9.4585 9.95817L0.708496 10.5832L4.4585 18.4998C4.66683 16.8332 5.29183 15.1665 6.12516 13.7082C7.16683 12.2498 8.2085 10.9998 9.4585 9.95817ZM18.8335 10.5832C13.0002 10.5832 8.41683 15.1665 8.41683 20.9998C8.41683 26.8332 13.0002 31.4165 18.8335 31.4165C24.6668 31.4165 29.2502 26.8332 29.2502 20.9998C29.2502 15.1665 24.6668 10.5832 18.8335 10.5832ZM4.66683 23.4998L0.916829 31.4165L9.4585 32.2498C8.41683 31.2082 7.16683 29.7498 6.3335 28.2915C5.29183 26.8332 4.87516 25.1665 4.66683 23.4998ZM13.8335 34.7498L18.8335 41.8332L23.8335 34.7498C22.1668 35.1665 20.5002 35.5832 18.8335 35.5832C16.9585 35.5832 15.2918 35.1665 13.8335 34.7498Z" fill="white"/>
</svg>
