<svg width="41" height="48" viewBox="0 0 41 48" fill="none" xmlns="http://www.w3.org/2000/svg">
<path d="M3 11.9474H38M16.125 21.5895V36.0528M24.875 21.5895V36.0528M5.1875 11.9474L7.375 40.8739C7.375 42.1525 7.83594 43.3788 8.65641 44.2829C9.47688 45.1871 10.5897 45.695 11.75 45.695H29.25C30.4103 45.695 31.5231 45.1871 32.3436 44.2829C33.1641 43.3788 33.625 42.1525 33.625 40.8739L35.8125 11.9474M13.9375 11.9474V4.71572C13.9375 4.07641 14.168 3.46327 14.5782 3.01121C14.9884 2.55914 15.5448 2.30518 16.125 2.30518H24.875C25.4552 2.30518 26.0116 2.55914 26.4218 3.01121C26.832 3.46327 27.0625 4.07641 27.0625 4.71572V11.9474" stroke="white" stroke-width="4.16667" stroke-linecap="round" stroke-linejoin="round"/>
</svg>
