<svg width="43" height="44" viewBox="0 0 43 44" fill="none" xmlns="http://www.w3.org/2000/svg">
<path d="M19.35 15.55H23.65V11.25H19.35M21.5 39.2C12.0185 39.2 4.3 31.4815 4.3 22C4.3 12.5185 12.0185 4.8 21.5 4.8C30.9815 4.8 38.7 12.5185 38.7 22C38.7 31.4815 30.9815 39.2 21.5 39.2ZM21.5 0.5C18.6766 0.5 15.8808 1.05611 13.2723 2.13659C10.6638 3.21707 8.29366 4.80075 6.2972 6.7972C2.26517 10.8292 0 16.2978 0 22C0 27.7022 2.26517 33.1708 6.2972 37.2028C8.29366 39.1993 10.6638 40.7829 13.2723 41.8634C15.8808 42.9439 18.6766 43.5 21.5 43.5C27.2022 43.5 32.6708 41.2348 36.7028 37.2028C40.7348 33.1708 43 27.7022 43 22C43 19.1766 42.4439 16.3808 41.3634 13.7723C40.2829 11.1638 38.6993 8.79366 36.7028 6.7972C34.7063 4.80075 32.3362 3.21707 29.7277 2.13659C27.1192 1.05611 24.3234 0.5 21.5 0.5ZM19.35 32.75H23.65V19.85H19.35V32.75Z" fill="white"/>
</svg>
