<svg width="26" height="36" viewBox="0 0 26 36" fill="none" xmlns="http://www.w3.org/2000/svg">
<path d="M13 0.854004L11.4375 2.604C11.4375 2.604 8.77083 5.62484 6.08333 9.5415C3.39583 13.4582 0.5 18.1457 0.5 22.6457C0.5 25.9609 1.81696 29.1403 4.16117 31.4845C6.50537 33.8287 9.68479 35.1457 13 35.1457C16.3152 35.1457 19.4946 33.8287 21.8388 31.4845C24.183 29.1403 25.5 25.9609 25.5 22.6457C25.5 18.1457 22.6042 13.4582 19.9167 9.5415C17.2292 5.62484 14.5625 2.604 14.5625 2.604L13 0.854004ZM13 7.37484C13.9167 8.45817 14.75 9.354 16.5 11.8957C19.0208 15.5623 21.3333 20.229 21.3333 22.6457C21.3333 27.2707 17.625 30.979 13 30.979C8.375 30.979 4.66667 27.2707 4.66667 22.6457C4.66667 20.229 6.97917 15.5623 9.5 11.8957C11.25 9.354 12.0833 8.45817 13 7.37484Z" fill="white"/>
</svg>
