<svg width="43" height="42" viewBox="0 0 43 42" fill="none" xmlns="http://www.w3.org/2000/svg">
<path d="M13.0208 29.2123C7.13013 27.7383 -2.44591 31.4217 7.13013 35.105C10.8124 44.68 14.4947 35.105 13.0228 29.2123" fill="#555555"/>
<path d="M13.0208 29.2123C7.13013 27.7383 -2.44591 31.4217 7.13013 35.105C10.8124 44.68 14.4947 35.105 13.0228 29.2123" stroke="white" stroke-width="4.16667" stroke-linecap="round" stroke-linejoin="round"/>
<path d="M20.4189 5.6749C15.3116 5.66032 8.71891 7.2749 7.88871 9.55719C7.28766 11.2124 10.4147 13.4134 14.3991 14.5759M36.5606 21.8145C36.5741 26.9228 34.9595 33.5145 32.6772 34.3457C31.022 34.9468 28.821 31.8197 27.6585 27.8343" stroke="white" stroke-width="4.16667" stroke-linecap="round" stroke-linejoin="round"/>
<path d="M36.5835 21.8384C43.5231 15.5207 38.796 3.42693 38.796 3.42693C38.796 3.42693 26.2793 -0.250152 20.3856 5.64151C14.4918 11.5332 13.021 29.2124 13.021 29.2124C13.021 29.2124 29.6418 28.1561 36.5835 21.8384Z" fill="#555555" stroke="white" stroke-width="4.16667" stroke-linecap="round" stroke-linejoin="round"/>
<path d="M36.5914 21.8467C36.5914 21.8467 29.5935 20.7426 25.5425 16.6905C21.4904 12.6395 20.3862 5.64258 20.3862 5.64258" stroke="white" stroke-width="4.16667" stroke-linecap="round" stroke-linejoin="round"/>
<path d="M30.7002 11.5347C31.5138 12.3482 32.8329 12.3482 33.6465 11.5347C34.4601 10.7211 34.4601 9.40196 33.6465 8.58837C32.8329 7.77478 31.5138 7.77478 30.7002 8.58837C29.8866 9.40197 29.8866 10.7211 30.7002 11.5347Z" fill="white"/>
<path d="M39.7081 16.8173C39.1456 18.6506 38.1685 20.3944 36.5831 21.8381C34.8664 23.4006 32.5581 24.6402 30.056 25.6225M25.1247 2.97461C23.357 3.48398 21.706 4.32253 20.3862 5.64128C19.1529 6.87669 18.1122 8.62773 17.2383 10.6246" stroke="white" stroke-width="4.16667" stroke-linecap="round" stroke-linejoin="round"/>
</svg>
